<?xml version="1.0" ?>
<svg xml:space="preserve" width="650.640709865" xmlns:xlink="http://www.w3.org/1999/xlink" height="153.694655874" viewBox="0 0 762 180" xmlns="http://www.w3.org/2000/svg" >
  <defs>
    <style type="text/css">
<![CDATA[
text{unicode-bidi:bidi-override}
clipPath{shape-rendering:crispEdges}
image{shape-rendering:crispEdges}
]]>
    </style>
    <clipPath id="id2">
      <rect width="762" height="180" y="0" x="0"/>
    </clipPath>
    <clipPath id="id3">
      <path clip-rule="nonzero" d="M0 0h762v180h-762Z"/>
    </clipPath>
    <clipPath id="id4">
      <path clip-rule="nonzero" d="M0 .059998h761.25v179.94h-761.25Z"/>
    </clipPath>
  </defs>
  <defs/>
  <g>
    <g transform="matrix(1 0 0 -1 0 180)" clip-path="url(#id2)" id="main">
      <g clip-path="url(#id3)">
        <path d="M70 93.75L70 100L91.25 118.75L91.25 126.25C99.05 134.05 107.5 141.2 112.5 151.25L117.5 152.5L122.5 161.25L127.5 162.5L126.25 166.25L142.5 180C147.313 177.637 161.713 175.5 163.75 173.75C162.625 171.275 160.625 165.325 161.25 162.5L157.5 160L160 157.5L160 155L156.25 152.5C157.325 149.675 158.113 146.7 158.75 143.75L155 140L156.25 137.5L152.5 131.25L153.75 128.75L152.5 125L153.75 122.5C151.462 119.825 149.725 111.525 152.5 108.75C154.95 111.538 163.262 119.163 167.5 118.75L177.5 130L177.5 133.75C182.037 134.788 190.925 144.163 193.75 147.5C193.925 154.3 206.063 169.575 212.5 172.5C216.1 174.138 225.05 173.575 228.75 172.5L231.25 170L237.5 170L238.75 167.5L233.75 160L233.75 155L227.5 153.75L227.5 147.5C218.912 145.288 214.15 135.588 206.25 131.25L207.5 128.75L201.25 123.75L201.25 118.75C197.037 113.487 189.875 108.625 185 103.75C178.075 102.975 173.05 102.263 168.75 96.25C171.262 93.73801 174.6 91.313 175 87.5L170 82.5L170 80L161.25 73.75L161.25 71.25L155 65L155 61.25C153.088 59.838 150.975 58.4 148.75 57.5L150 52.5L140 43.75C124.013 43.825 127.463 37.575 118.75 55L122.5 58.75L122.5 63.75L120 67.5L122.5 70C122.888 73.537 122.237 77.86201 121.25 81.25L127.5 87.5L125 91.25C124.7 93.063 124.837 97.275 126.25 98.75C122.85 102.65 121.45 111.35 122.5 116.25L125 120C125.3 121.813 125.163 126.025 123.75 127.5C116.013 119.725 107.05 110.625 97.5 105L96.25 101.25L90 100L90 96.25L92.5 95C84.775 91.175 79.21201 76.95 70 75L68.75 70L66.25 67.5L62.5 67.5L56.25 60L52.5 58.75L52.5 56.25L43.75 47.5L43.75 45C40.55 41.426 25.062 25.737 23.75 22.5L16.25 18.75C11.663 19.399 6.6 21.713 2.5 23.75L2.5 27.5L0 28.75L1.25 31.25C20.987 31.625 46.013 86.825 70 93.75" fill-rule="nonzero" stroke="none" fill="#f4a633"/>
        <path d="M217.5 75L216.25 80L218.75 82.5L220 86.25L221.25 88.75L221.25 93.75L228.75 103.75L231.25 103.75L236.25 112.5L238.75 112.5C238.75 112.5 241.875 116.25 241.25 116.25C240.625 116.25 243.75 120 243.75 120L251.25 127.5L251.25 130L253.75 130L257.5 136.25L266.25 143.75L276.25 153.75L290 153.75L291.25 156.25L297.5 157.5L301.25 157.5L302.5 155L301.25 150L298.75 146.25L297.5 141.25L291.25 130L286.25 130L285 125L278.75 121.25L273.75 118.75L271.25 116.25L270 112.5L266.25 106.25L258.75 98.75L256.25 93.75L252.5 93.75L245 86.25C245 86.25 242.5 86.563 242.5 85C242.5 83.438 240 80 240 80L237.5 77.5L233.75 76.25L228.75 75L225 73.75L217.5 75ZM186.25 70L191.25 66.25L191.25 63.75L197.5 58.75C197.5 58.75 201.25 56.875 201.25 56.25C201.25 55.625 206.25 55 206.25 55L212.5 52.5L220 57.5L226.25 58.75L228.75 60L230 58.75L240 58.75L243.75 62.5L243.75 65L246.25 67.5L252.5 68.75L258.75 73.75C258.75 73.75 263.438 78.125 263.75 77.5C264.063 76.875 268.75 83.75 268.75 83.75L271.25 85L272.5 88.75L278.75 100L283.75 101.25L287.5 105L293.75 112.5L295 113.75L300 123.75L308.75 132.5L311.25 133.75L312.5 141.25L318.75 148.75L317.5 151.25L317.5 161.25C317.5 162.187 313.75 162.5 313.75 162.5L312.5 166.25L308.75 168.75L286.25 168.75C286.25 168.75 282.188 170.312 282.5 171.25C282.813 172.188 277.5 171.25 277.5 171.25L275 171.25L272.5 170L267.5 166.25L261.25 165L255 161.25L250 157.5C250 157.5 243.125 153.125 242.5 152.5C241.875 151.875 240 148.75 240 148.75L236.25 142.5L228.75 135L223.75 132.5L217.5 128.75L212.5 120L207.5 116.25C207.5 116.25 203.125 112.5 202.5 112.5C201.875 112.5 198.75 107.5 198.75 107.5L198.75 103.75L195 100C195 100 191.25 94.37501 191.25 93.75L191.25 88.75L192.5 87.5C192.5 87.5 190.625 83.12501 191.25 82.5C191.875 81.87501 187.5 73.75 187.5 73.75L186.25 70" fill-rule="nonzero" stroke="none" fill="#f4a633"/>
        <path d="M518.75 113.75L522.5 117.5L525 118.75L525 121.25L528.75 125L536.25 122.5L540 126.25L541.25 130C541.25 130 545 128.75 545 130C545 131.25 547.5 131.25 547.5 131.25L550 135L553.75 138.75L557.5 141.25C557.5 141.25 557.813 138.125 557.5 137.5C557.188 136.875 553.438 134.375 553.75 133.75C554.063 133.125 551.25 131.25 551.25 131.25L551.25 121.25L550 118.75L546.25 118.75C546.25 118.75 544.375 116.563 543.75 116.25C543.125 115.938 542.188 115.313 541.25 115C540.313 114.688 536.25 115 536.25 115L531.25 116.25L526.25 113.75L518.75 113.75ZM446.25 58.75C446.25 58.75 449.487 55.862 450 56.25C450.513 56.638 454.676 56.987 455 57.5C455.324 58.013 460 58.75 460 58.75L461.25 58.75L463.75 61.25L468.75 62.5L470 66.25L472.5 67.5L472.5 71.25L473.75 72.5L475 75L478.75 75C478.75 75 479.551 77.72501 480 77.5C480.449 77.274 481.787 80.412 482.5 81.25C483.213 82.08701 485 83.75 485 83.75C485 83.75 488.063 83.55 488.75 83.75C489.438 83.95 491.25 85 491.25 85L492.5 87.5L497.5 90L500 96.25L505 101.25C505 101.25 509.138 100.588 508.75 100C508.362 99.412 513.75 101.25 513.75 101.25L518.75 102.5L521.25 103.75L532.5 103.75L533.75 102.5C533.75 102.5 537.012 101.713 537.5 101.25C537.988 100.787 542.5 100 542.5 100C542.5 100 542.075 94.313 542.5 93.75C542.925 93.188 540.725 91.85 540 91.25C539.275 90.65 539.162 89.6 538.75 88.75C538.338 87.899 538.262 85.12501 537.5 83.75C536.738 82.37501 536.925 81.537 536.25 81.25C535.575 80.96201 536.25 77.5 536.25 77.5C536.25 77.5 534.45 74.36301 533.75 73.75C533.05 73.137 532.5 68.75 532.5 68.75L527.5 61.25L527.5 57.5L533.75 57.5L537.5 60L538.75 61.25L545 63.75L546.25 66.25L550 70L555 70L561.25 76.25L565 77.5L567.5 80L568.75 82.5L568.75 86.25L572.5 93.75L572.5 98.75L576.25 102.5L576.25 106.25C576.25 106.25 577.925 107.313 578.75 107.5C579.575 107.688 578.75 112.5 578.75 112.5C578.75 112.5 579.5 114.925 580 115C580.5 115.075 577.5 116.25 577.5 116.25L577.5 118.75L578.75 120L575 123.75L576.25 126.25L580 128.75L583.75 130C583.75 130 588.237 134.2 588.75 135C589.263 135.8 590.475 139.138 591.25 140C592.025 140.862 592.5 143.75 592.5 143.75L592.5 150L593.75 152.5L596.25 155L597.5 162.5C597.5 162.5 599.45 165.8 600 166.25C600.55 166.7 600 168.75 600 168.75C600 168.75 595.637 172.3 595 172.5C594.363 172.7 593.75 173.75 593.75 173.75C593.75 173.75 588.912 174.188 588.75 175C588.588 175.812 585 177.5 585 177.5L572.5 177.5L570 175L565 175L558.75 168.75L556.25 163.75L551.25 161.25L547.5 158.75L541.25 156.25L538.75 152.5L536.25 150C536.25 150 534.551 146.85 535 146.25C535.449 145.65 531.25 143.75 531.25 143.75L526.25 136.25L522.5 135C522.5 135 517.199 133.075 517.5 132.5C517.801 131.925 514.063 130.613 513.75 130C513.438 129.387 511.25 126.25 511.25 126.25C511.25 126.25 508.237 123.45 507.5 123.75C506.763 124.05 503.75 121.25 503.75 121.25L500 120L497.5 117.5L496.25 115L491.25 113.75L490 110L488.75 103.75L482.5 101.25C482.5 101.25 477.988 98.787 476.25 98.75C474.512 98.71301 471.487 95.87501 471.25 95C471.013 94.12501 470 92.5 470 92.5C470 92.5 467 87.36301 466.25 86.25C465.5 85.137 462.963 82.438 462.5 82.5C462.037 82.563 458.75 80 458.75 80C458.75 80 455.801 77.274 455 76.25C454.199 75.22501 453.775 74.36301 453.75 73.75C453.725 73.137 451.313 68.312 451.25 67.5C451.188 66.687 447.5 66.25 447.5 66.25L445 62.5L446.25 58.75" fill-rule="nonzero" stroke="none" fill="#f4a633"/>
      </g>
      <g clip-path="url(#id4)">
        <path d="M630 83.75L632.5 87.5L632.5 90L635 93.75L640 98.75L637.5 98.75L642.5 102.5L642.5 106.25L645 108.75L647.5 108.75L648.75 113.75L651.25 113.75L655 117.5L656.25 123.75C656.25 123.75 660.6251 126.25 661.25 126.25C661.8751 126.25 666.25 128.75 666.25 128.75C666.25 128.75 666.8751 130.625 667.5 131.25C668.1251 131.875 671.25 132.5 671.25 132.5L675 136.25L680 143.75L701.25 143.75L713.75 142.5L720 138.75L726.25 138.75C726.25 138.75 727.813 134.688 727.5 133.75C727.188 132.813 728.75 130 728.75 130C728.75 130 729.063 128.438 728.75 127.5C728.438 126.563 726.25 123.75 726.25 123.75L727.5 117.5C727.5 117.5 724.3751 114.688 723.75 115C723.1251 115.313 720.6251 113.75 720 113.75C719.3751 113.75 717.5 111.25 717.5 111.25L707.5 106.25C707.5 106.25 703.1251 102.813 702.5 102.5C701.8751 102.188 697.5 101.25 697.5 101.25L692.5 98.75L687.5 98.75L683.75 96.25L675 96.25L671.25 93.75L666.25 93.75L662.5 91.25L650 90C650 90 643.1251 85.62501 642.5 86.25C642.162 86.58701 638.6 85.85 635.375 85.08701C632.563 84.425 630 83.75 630 83.75ZM725.037 90C724.962 89.98801 724.938 89.97501 725 90C725.037 90.012 725.05 90.012 725.037 90ZM706.238 80.024C706.275 80.024 706.287 80.012 706.25 80C706.175 79.97501 706.188 79.98801 706.238 80.024ZM617.688 129.737C617.774 130.15 617.824 130.288 617.838 130.288C617.862 130.275 617.801 129.813 617.688 129.737ZM611.25 152.5C611.25 152.5 610.926 152.837 610 151.25C609.074 149.663 610.662 150.037 608.75 147.5C606.837 144.963 603.65 145.45 606.25 143.75C608.85 142.05 610.063 140.9 611.25 141.25C612.438 141.6 613.075 141.8 615 141.25C616.925 140.7 617.438 141.35 618.75 141.25C620.063 141.15 620.675 140.45 622.5 141.25C624.325 142.05 624.112 142.737 625 142.5C625.888 142.263 625.713 144.075 626.25 142.5C626.787 140.925 627.287 140.425 626.25 140C625.213 139.575 623.75 138.75 623.75 138.75L622.5 137.5C622.5 137.5 623.813 135.575 622.5 135C621.188 134.425 622.213 134.2 621.25 133.75C620.287 133.3 619.238 133.487 618.75 132.5C618.262 131.513 617.176 131.887 617.5 131.25C617.824 130.613 617.176 131.175 617.5 130C617.563 129.75 617.637 129.7 617.688 129.737L617.5 128.75C616.925 125.463 616.25 125 616.25 125C616.25 125 615.987 124.725 615 123.75C614.013 122.775 614.838 121.525 613.75 121.25C612.662 120.975 613.449 120.813 612.5 120C611.551 119.188 612.525 117.825 611.25 117.5C609.975 117.175 608.75 116.25 608.75 116.25C608.75 116.25 607.713 116.188 607.5 115C607.287 113.813 606.563 113.875 606.25 112.5C605.938 111.125 605.625 110.9 605 110C604.375 109.1 604.024 109.737 603.75 108.75C603.475 107.763 603.313 107.212 602.5 106.25C601.688 105.288 601.588 106.275 601.25 105C600.912 103.725 602.388 103.738 601.25 102.5C600.112 101.262 600.112 100.538 600 100C599.888 99.46201 600.775 100.5 600 98.75C599.225 97 599.175 97.288 598.75 96.25C598.325 95.21201 598.025 95.688 597.5 95C596.975 94.313 596.863 94.313 596.25 93.75C595.637 93.188 595.488 92.26301 595 92.5C594.512 92.73701 593.75 92.5 593.75 92.5C593.75 92.5 591.125 93.37501 591.25 92.5C591.375 91.62501 591.8 92.45 591.25 91.25C590.7 90.05 590.412 89.23801 590 88.75C589.588 88.262 589.713 89.19901 588.75 87.5C587.787 85.801 589 85.775 587.5 85C586 84.22501 586.95 84.61201 586.25 83.75C585.55 82.888 586.375 83.46201 586.25 82.5C586.125 81.537 585.438 80.7 585 80C584.563 79.3 583.613 80 583.75 78.75C583.887 77.5 581.825 78.36201 583.75 76.25C585.675 74.138 584.9 74.25 585 73.75C585.1 73.25 587.363 73.325 585 72.5C582.637 71.675 584.15 71.937 582.5 71.25C580.85 70.562 580.949 71.013 580 70C579.051 68.987 579.787 69.187 578.75 68.75C577.713 68.312 578.6 69.187 576.25 68.75C573.9 68.312 574.013 70.301 572.5 68.75C570.987 67.19901 570.813 66.649 570 66.25C569.188 65.85 570.775 67.55 568.75 66.25C566.725 64.95 567.125 65.937 566.25 65C565.375 64.062 564.813 64.33801 563.75 63.75C562.688 63.162 561.25 62.5 561.25 62.5L562.5 57.5L562.5 55L565 52.5C565 52.5 566.037 53.524 567.5 53.75C568.963 53.975 574.088 56.062 575 56.25C575.912 56.437 580 56.25 580 56.25L583.75 58.75L587.5 56.25C587.5 56.25 591.35 56.287 591.25 56.25C591.15 56.213 598.025 58.013 597.5 58.75C596.975 59.487 607.5 60 607.5 60L608.75 61.25C608.75 61.25 609.125 58.375 610 58.75C610.875 59.125 617.5 60 617.5 60C617.5 60 620.875 60.687 621.25 61.25C621.625 61.812 628.75 67.5 628.75 67.5L632.5 68.75C632.5 68.75 643.912 66.912 643.75 67.5C643.588 68.08801 657.5 68.75 657.5 68.75L661.25 72.5L665 72.5L670 78.75C670 78.75 677.162 80.47501 678.75 80C680.338 79.525 686.25 78.75 686.25 78.75C686.25 78.75 693.975 78.649 695 78.75C695.963 78.83701 705.575 80.08701 706.238 80.024C706.188 79.98801 706.175 79.97501 706.25 80C706.287 80.012 706.275 80.024 706.238 80.024C706.65 80.37501 710 82.5 710 82.5C710 82.5 711.0131 83.275 711.25 83.75C711.4871 84.22501 715 85 715 85C715 85 716.563 86.037 717.5 86.25C718.438 86.46201 721.25 87.5 721.25 87.5C721.25 87.5 724.975 89.83801 725.037 90C725.662 90.137 730 91.25 730 91.25C730 91.25 730.613 91.813 731.25 92.5C731.887 93.188 732.7 96.175 733.75 96.25C734.8 96.325 735.463 98.925 736.25 98.75C737.037 98.575 740 98.75 740 98.75C740 98.75 741.912 100.35 742.5 101.25C743.087 102.15 745.338 103.588 745 105C744.662 106.412 747.65 105.413 747.5 106.25C747.35 107.087 748.3621 108.175 748.75 108.75C749.1381 109.325 749.512 111.375 750 111.25C750.488 111.125 751.25 112.5 751.25 112.5C751.25 112.5 750.449 115.525 751.25 115C752.051 114.475 753.8751 116.225 753.75 116.25C753.6251 116.275 754.363 116.938 755 117.5C755.637 118.063 757.5 120 757.5 120C757.5 120 758.725 120.625 758.75 121.25C758.775 121.875 760 123.75 760 123.75L761.25 126.25L758.75 128.75C758.75 128.75 755.7371 129.163 756.25 130C756.7631 130.837 758.75 132.5 758.75 132.5C758.75 132.5 759.1381 132.4 757.5 133.75C755.8621 135.1 753.75 138.75 753.75 138.75C753.75 138.75 752.725 139.075 752.5 140C752.275 140.925 750 143.75 750 143.75L748.75 148.75C748.75 148.75 746.725 152.875 746.25 152.5C745.775 152.125 742.5 155 742.5 155L736.25 156.25L728.75 157.5L721.25 157.5L717.5 158.75L706.25 158.75L701.25 160L693.75 157.5L690 158.75L685 158.75C685 158.75 681.9 160.438 680 158.75C678.1 157.062 676.25 156.25 676.25 156.25C676.25 156.25 673.8751 155.662 673.75 156.25C673.6251 156.838 670 158.75 670 158.75C670 158.75 670.1251 158.65 667.5 158.75C664.8751 158.85 666.175 158.65 662.5 158.75C658.825 158.85 657.7 158.65 656.25 158.75C654.8 158.85 653.75 158.75 653.75 158.75L651.25 157.5C647.85 156.612 649.387 156.113 647.5 156.25C645.613 156.387 645.7 156.337 643.75 156.25C641.8 156.163 640.662 156.337 640 156.25C639.337 156.163 638.75 156.25 638.75 156.25L633.75 156.25C633.063 155.712 632.35 156.075 631.25 155C630.15 153.925 628.926 154.475 628.75 153.75C628.574 153.025 627.5 152.5 627.5 152.5L611.25 152.5" fill-rule="nonzero" stroke="none" fill="#f4a633"/>
        <path d="M439.412 129.6C439.4 129.15 439.45 128.987 439.537 129C439.787 129.813 440 130.388 440 130C440 129.838 439.699 129.013 439.537 129C439.175 127.85 438.75 126.25 438.75 126.25L430 117.5L427.5 113.75L423.75 106.25L422.5 100L415 92.5L416.25 88.75L417.5 86.25L416.25 77.5L413.75 75L411.25 68.75L408.75 63.75L403.75 56.25L398.75 50C398.75 50 396.875 46.562 396.25 46.25C395.625 45.937 340 43.75 340 43.75L332.5 47.5L291.25 47.5L285 46.25L280 45L273.75 45L280 52.5L282.5 53.75L287.5 57.5L288.75 62.5C288.75 62.5 291.25 64.375 291.25 65C291.25 65.625 298.75 70 298.75 70L303.75 76.25L311.25 85L312.5 88.75C312.5 88.75 314.063 90 315 90C315.938 90 330 108.75 330 108.75L332.5 115L338.75 120L340 125L347.5 131.25L343.75 125L343.75 117.5C343.75 116.563 340.938 115.938 341.25 115C341.563 114.063 341.563 110.938 341.25 110C340.938 109.063 341.563 105.625 341.25 105C340.938 104.375 337.5 101.563 337.5 100C337.5 98.438 333.75 93.438 333.75 92.5C333.75 91.563 334.063 85.313 333.75 83.75C333.438 82.188 333.75 75 333.75 75L332.5 68.75L335 63.75C335 63.75 339.375 61.875 340 62.5C340.625 63.125 346.25 65 346.25 65L352.5 70C352.5 70 357.813 71.875 358.75 72.5C359.688 73.125 363.125 76.25 365 76.25C366.875 76.25 371.25 77.5 371.25 77.5L373.75 80L378.75 81.25C378.75 81.25 380.938 83.12501 381.25 83.75C381.563 84.37501 383.125 89.063 382.5 88.75C381.875 88.438 385 91.25 385 91.25L388.75 91.25L396.25 96.25L403.75 100L406.25 105L411.25 107.5L416.25 111.25C416.25 111.25 420 111.563 420 112.5L420 116.25L427.5 121.25L430 123.75L431.25 126.25L436.25 130C436.25 130 439.45 131.088 439.412 129.6ZM549.138 45.05C549.287 44.937 549.199 44.899 548.75 45C548.65 45.024 548.787 45.037 549.138 45.05ZM376.25 3.75C376.325 2.988 378.75 3.75 378.75 3.75C378.75 3.75 380.5 3.362 381.25 3.75C382 4.138 383.088 3.362 383.75 3.75C384.412 4.138 386.25 2.5 386.25 2.5L387.5 2.5L388.75 0C388.75 0 391.738 1.337 392.5 1.25C393.262 1.162 395 2.5 395 2.5L397.5 2.5C397.5 2.5 398.362 4.225 398.75 6.25C399.138 8.275001 398.75 8.75 398.75 8.75C398.75 8.75 401.625 9.025001 401.25 10C400.875 10.975 402.5 12.5 402.5 12.5C402.5 12.5 403.838 14.025 405 15C406.162 15.975 405.275 17.763 405 18.75C404.725 19.737 406.15 20.649 406.25 21.25C406.35 21.85 410 22.5 410 22.5L436.25 23.75C436.25 23.75 441.3 22.375 442.5 22.5C443.7 22.625 447.5 25 447.5 25L451.25 23.75L460 23.75C460 23.75 491.074 23.687 495 23.75C498.926 23.812 514.475 23.113 517.5 23.75C518.875 24.037 524.15 23.075 529.5 23.301C533.237 23.449 537.025 22.75 539.537 23.187C541.35 23.5 540.55 24.45 542.5 25C544.45 25.55 556.063 23.875 558.75 25C561.438 26.125 568.95 25.801 571.25 26.25C573.55 26.699 640.775 28.5 643.75 28.75C646.725 29 643.75 30.037 646.25 31.25C648.75 32.463 656.463 29.85 657.5 30C658.537 30.15 675.6251 30.9 678.75 31.25C681.8751 31.6 696.6 32.25 698.75 32.5C700.899 32.75 706.6121 32.25 707.5 32.5C708.3881 32.75 720.488 33.325 721.25 33.75C722.012 34.175 724.813 34.95 726.25 35C727.688 35.05 750 33.75 750 33.75L751.25 36.25C751.25 36.25 752.7631 39.087 753.75 40C754.7371 40.912 753.8751 40.725 753.75 42.5C753.6251 44.274 752.051 44.575 751.25 45C750.449 45.425 745 46.25 745 46.25C745 46.25 744.15 46.312 741.25 46.25C738.35 46.187 735 46.25 735 46.25C735 46.25 723.087 45.137 722.5 45C721.912 44.863 711.699 44.963 708.75 45C705.801 45.037 680 43.75 680 43.75L673.75 45C673.75 45 644.412 43.8 641.25 43.75C638.25 43.7 555.737 45.263 549.138 45.05C548.625 45.437 545.237 46.725 545 46.25C544.688 45.637 536.25 46.25 536.25 46.25C536.25 46.25 522.125 45.362 520.475 44.925C513.675 43.088 494.074 46.487 485.075 44.062C478.438 42.274 458.887 45.362 450.475 44.062C446.15 43.4 442.85 44.25 439.225 42.037C438.125 41.362 437.875 40.862 436.325 40.862C433.075 40.862 428.088 42.025 427.112 44.3C426.925 44.725 426.175 44.3 425.7 44.3L421.412 44.3C420.801 43.912 420.55 43.2 420.237 43.75C419.425 45.162 422.75 47.862 423.125 48.675C424.475 51.562 426.775 52.587 427.737 55.237C428.075 56.149 427.75 57.3 428.287 58.125C428.525 58.5 429.6 59.375 429.763 59.85C429.9 60.212 430 61.013 430.313 61.325C430.4 61.412 433.662 64.46201 433.75 64.763C434.375 67.062 435.725 68.937 436.95 71.1C437.4 71.875 436.95 72.575 437.5 73.125C437.713 73.33701 437.55 73.83701 437.813 73.98701C438.463 74.35 440.862 75.825 440.938 76.013C441.75 78.187 441.3 78.412 442.975 80.075C443.113 80.22501 443.926 81.325 444.138 81.175C443.563 82.75 448.412 85.83701 448.2 86.412C448.574 86.25 449.175 87.274 449.3 87.5C450.75 90.037 448.588 91.85 450.162 92.425C450.438 92.525 450.613 93.137 451.013 92.97501L451.013 93.6C451.438 93.175 451.325 93.912 451.325 93.912C451.475 94.05 453.375 94.7 453.675 95C454.375 95.7 453.5 98.25 453.912 99.063C454.225 99.7 457.112 99.688 457.662 100.237C458.088 100.675 458.563 101.113 458.825 101.638C458.875 101.725 458.638 103 459.138 102.5L459.138 103.125C460.675 103.125 460.9 105.212 462.037 105.938C462.287 106.1 462.475 107.425 462.888 107.112C462.676 107.913 463.987 108.8 463.987 110.313L464.612 110.313C463.963 111.825 469.975 118.875 468.6 120.7C470.263 120.288 478.487 128.287 478.125 129.3L478.75 129.3C478.075 131.1 486.35 145.813 488.2 146.875C488.463 147.025 492.324 146.7 492.813 146.875C493.613 147.163 495.275 149.138 495.7 149.45C495.801 149.525 495.912 149.525 496.013 149.45L496.013 150.075C496.412 149.9 496.6 150.525 496.875 150.625C499.95 151.738 498.237 154.65 498.912 155.55C500.338 157.463 501.9 159.05 503.2 161.325C504.112 162.913 502.725 166.175 505.237 166.175L505.263 166.15L506.875 168.75L506.25 168.75C507.138 170.513 502.925 169.788 502.5 170C501.338 170.575 500.75 171.663 499.688 172.188C497.263 173.4 496.938 171.438 495.313 170.625C495.137 170.538 493.7 170.938 493.125 170.938L492.15 170.312C491.675 170.312 491.213 170.588 491.563 170.938C490.888 170.938 488.675 173.05 489.063 173.437L488.438 173.437L488.438 174.063C488.063 173.688 487.4 174.375 486.875 174.375C486.125 174.375 481.612 174.5 481.25 174.375C474.888 172.25 478.537 171.7 474.387 171.85C473.95 171.863 473.438 173.125 472.813 173.125C471.975 173.125 471.113 172.55 470.313 172.812C470.912 172.212 467.912 172.4 468.438 171.875C467.563 172.163 467.275 171.337 466.875 170.938C466.1 170.162 462.725 169.525 461.563 168.75C459.037 167.075 456.863 162.963 454.688 161.875C454.438 161.75 454.425 161.375 454.063 161.563L454.063 160.938C453.787 161.213 452.012 159.45 451.25 159.063C451.074 158.975 448.775 157.788 449.063 157.5C448.125 157.737 446.412 156.1 445.938 155.625C445.85 155.538 445.85 155.4 445.938 155.313C444.162 155.9 442.775 153.175 441.875 152.5C441.563 152.275 441.25 152.413 440.938 152.188C440.625 151.95 440.324 150.787 440 150.625C439.95 150.6 438.926 150.762 439.375 150.313C438.213 150.313 434.512 148.313 433.438 147.5L432.188 146.25L431.563 146.25C431.763 146.05 431.088 145.7 430.938 145.625C430.338 145.325 429.863 144.512 429.688 144.688L429.688 144.063C429.537 144.213 428.85 143.325 428.438 143.125C427.775 142.8 423.525 139.963 423.438 139.688C423.088 138.65 422.4 138.65 421.875 138.125C421.787 138.038 421.787 137.9 421.875 137.813C420.85 138.15 420.637 136.863 420.313 137.187L420.313 136.563C419.988 136.725 417.763 134.975 417.188 134.688C416.551 134.375 408.013 129.05 407.813 128.75C407.263 127.925 403.688 127.075 404.063 125.938C403.025 125.5 400.075 124.025 400 124.063L400 123.438C399.525 123.675 399.4 122.925 399.063 122.813C394.6 121.325 393.463 116.25 390.625 116.25L390.625 115.625C389.6 115.625 389.275 115 388.125 115C388.537 114.587 387.813 114.688 387.813 114.688C387.176 114.688 385.949 113.75 384.688 113.75L384.688 113.125C383.8 113.125 383.075 112.275 382.188 112.5C382.637 112.05 381.612 112.212 381.563 112.188C380.237 111.525 380.05 111.612 379.063 110.625C379.063 110.625 378.337 110.725 378.75 110.313L378.125 110.313C378.4 110.037 377.425 109.925 377.188 109.688C376.925 109.425 376.487 108.513 376.25 108.75L376.25 107.813L375.625 107.813C376.038 107.4 375.313 107.5 375.313 107.5C375.25 107.438 374.875 105.438 374.375 105.938C374.675 105.025 373.688 104.625 373.438 104.375C373.35 104.288 373.35 104.15 373.438 104.063L372.813 104.063C373 103.875 372.012 101.563 370.313 101.563C370.563 101.313 369.537 100.862 369.375 100.938L369.375 100.313C369.213 100.388 368.188 99.938 368.438 99.688C367.837 99.88801 367.188 99.063 366.875 99.37501L366.875 105C366.962 105.087 367.975 106.563 367.813 106.875L368.438 106.875C368.438 107.15 368.762 108.425 369.063 108.125C369.063 109.475 369.688 110.1 369.688 111.25C370.15 110.787 369.975 111.85 370 111.875C370.75 112.625 370.938 112.913 370.938 114.375C370.938 117.425 371.625 118.938 372.5 121.563C372.6 121.875 373.787 123.162 374.063 123.438C374.15 123.525 374.288 123.525 374.375 123.438L374.375 124.063C374.663 123.775 375.313 125.15 375.313 125.625C375.313 127.6 375.425 129.263 374.375 130.313C374.325 130.362 374.038 131.55 373.438 131.25L373.438 131.875C372.587 131.587 370.475 133 370.938 134.375C371.275 135.375 373.325 135.737 372.813 136.25L373.438 136.25L373.438 136.875C373.85 136.462 373.75 137.187 373.75 137.187C374.125 137.563 374.8 138.187 375.313 138.437C376.887 139.225 379.925 140.625 381.25 140.625C381.125 140.75 382.051 141.7 382.188 141.562L382.188 142.187C382.35 142.025 382.65 142.338 382.813 142.5C382.888 142.575 384.15 144.412 384.063 144.688C384.338 144.412 384.688 145.4 384.688 145.625L384.688 150C384.85 149.838 385.463 150.613 385.625 150.937C386.313 152.3 386.2 153.975 386.875 155.313C386.938 155.438 387.012 157.675 387.5 157.188L387.5 157.812C387.775 157.537 388.088 158.35 388.125 158.438C388.588 159.375 389.263 160.2 390 160.938C393.825 164.763 391.563 163.95 391.563 169.063C391.3 169.063 388.9 169.213 389.375 169.687L388.75 169.687C388.887 169.825 388.262 170.45 388.125 170.312L388.125 170.938C386.713 170.938 384.199 171.738 383.438 172.5C383.063 172.875 381.5 172.562 381.875 172.188C381.588 172.288 378.775 170.525 378.125 170.312C377.338 170.05 376.375 169.938 375.625 170.312C375.313 170.475 374.838 171.088 374.688 170.938L374.688 171.562C373.262 171.562 373.088 172.225 372.5 172.812C372.475 172.837 371.412 172.662 371.875 173.125L371.25 173.125L370.938 173.437L370.938 174.063C369.963 174.063 368.975 174.288 369.375 174.687L368.438 174.687C368.025 174.687 363.038 175.388 364.338 175.188C365.625 175 358.225 175.675 358.125 175.625C357.45 175.288 354.063 172.812 354.063 172.812C354.3 172.35 351.412 170.162 351.25 170C350.712 169.462 349.975 168.1 349.375 167.5C349.25 167.375 349.087 165.913 348.75 166.25L348.75 165.625C348.388 165.987 347.45 164.737 347.813 164.375L347.188 164.375C347.3 164.263 346.362 163.325 346.25 163.437L346.25 162.813C346.163 162.9 346.025 162.9 345.938 162.813L343.125 160C342.925 159.8 342.313 159.438 342.5 159.063L341.875 159.063C342.35 158.588 340.85 159 341.25 157.812C340.875 158.187 339.238 155.8 338.438 155C338.325 154.888 337.212 154.35 337.5 154.062L336.875 154.062C337.063 153.875 336.2 153.125 335.625 153.125L335.625 152.5C335.425 152.7 334.725 151.6 334.688 151.563C333.137 150.012 333.987 145.237 333.438 144.688C332.9 144.15 333.2 143.2 332.5 142.5C330.463 140.463 327.5 138.425 327.5 135.625L326.875 135.625C327.075 135.025 323.525 130.712 323.125 130.313L320.938 130.313C319.038 130.313 318.513 129.375 316.563 129.375C316.6 129.338 315.613 127.813 314.375 127.813C314.25 127.813 314.15 127.9 314.063 127.813C313.638 127.388 312.813 125.938 311.875 126.25C312.2 125.288 310 124.688 309.375 124.063L309.375 117.813C309.138 118.05 308.925 117.363 308.75 117.188C308.325 116.763 307.413 115.762 306.875 115.938C307.087 115.3 306.487 114.85 306.25 114.375C305.613 113.1 306.875 111.575 306.875 111.25C306.875 110.475 306.013 107.737 305.625 108.125L305.625 107.188C305.237 107.575 304.587 105.525 304.375 105.313C303.313 104.25 299.563 99.325 298.125 99.688C298.65 99.163 296.038 98.175 295.313 97.813C294.35 97.325 291.713 94.325 290.625 94.688C290.913 93.83701 287.637 91.7 287.188 91.25C287.025 91.08801 286.713 90.787 286.875 90.62501C285.688 91.025 286.1 89.525 285.625 90C285.588 89.813 275.225 78.58801 273.75 75.625C272.512 73.162 269.55 72.22501 268.438 70C267.888 68.887 266.6 66.525 266.25 66.875L266.25 65.937C265.913 66.274 265.337 64.35 265 64.687C265 60.463 251.45 60.962 252.5 57.812L251.875 56.562C252.037 56.25 251.475 56.987 251.25 56.875C250 56.25 248.438 54.687 247.188 53.437C246.887 53.137 246 52.25 245.625 52.5C245.975 51.8 242.413 46.475 242.188 46.25C242.15 46.213 238.725 42.662 238.925 42.263C231.287 42.263 215.375 41.763 208.013 43.4C202.25 44.687 194.75 43.75 188.825 43.75C183.237 43.75 177.925 42.575 172.737 42.575C168.6 42.575 156.75 44.399 154.3 43.75C152.6 43.301 138.063 40.926 137.263 41.725C136.962 42.025 137.025 42.587 136.725 42.888C136.113 43.5 135 43.125 134.138 43.125C132 43.125 131.15 42.338 129.538 41.412C128.85 41.013 110.025 41.25 108.75 41.725C108.462 41.825 106.838 41.6 106.725 41.725C104.763 43.675 99.83701 42.562 96.95 43.125C96.72501 43.175 94.25 44.037 93.75 43.75C93.2 43.675 72.8 43.625 72.73701 43.6C69.888 42.176 69.237 41.562 65.7 41.562C65.187 41.562 62.2 41.274 62.112 41.1C61.712 40.301 60.663 34.963 60.937 33.987C61.25 32.875 61.487 32.1 61.487 31.013L61.487 30.7L57.812 28.987L54.925 26.1C54.188 24.625 51.163 19.149 52.737 17.575C53.125 17.187 56.125 18.275 56.562 18.362C64.6 19.963 73.21201 22.075 81.95 20.625C84.413 20.212 87.08701 18.687 89.687 18.362C93.038 17.937 96.525 18.1 99.925 17.575C105.35 16.738 107.925 18.8 112.188 20.937L112.5 20.937C115.5 20.937 117.612 19.162 123.887 19.162L123.825 19.225C129.988 19.225 133 19.225 138.438 17.187C140.05 16.587 142.388 17.037 143.987 16.412C147.05 15.176 153.938 18.024 157.037 18.75C159.688 19.375 171.275 18.2 174.85 18.2C180.825 18.2 186.925 18.437 192.813 18.437C194.8 18.437 198.313 18.926 200.075 18.05C200.162 18 202.263 17.899 201.95 17.425C207.313 17.425 211.138 16.074 215.862 18.437C217.15 19.074 224.813 17.737 226.412 17.737C235.175 17.737 242.575 14.525 251.013 18.75C253.325 19.899 257.263 19.537 260.075 19.537C260.538 19.537 261.188 19.437 261.412 19.225C261.475 19.149 261.9 18.301 262.037 18.437C266.075 18.437 268.063 18.987 271.25 19.85C271.75 19.975 298.75 18.987 302.112 18.987C301.663 18.388 303.375 18.713 303.513 18.675C304.6 18.362 305.862 17.662 306.95 17.263C312.65 15.2 312.65 18.987 315.938 18.987C320.35 18.987 326.063 18.362 330.075 19.85C331.55 20.388 335.588 22.837 337.263 21.875L342.737 20.388C342.35 19.875 343.938 20.075 344.138 20.075C345.563 20.075 347.65 20.5 348.2 19.537C348.262 19.437 349.15 19.75 348.75 19.225C349.438 19.225 351.412 19.25 350.787 18.987C351.387 18.987 357.85 18.912 357.975 18.987C359.55 19.988 360.825 20.388 362.888 20.388L369.537 20.388C369.65 20.388 370.063 20.312 369.763 20.7C372.063 20.7 384.938 23.024 386.25 21.25C386.25 21.25 385.5 19.013 383.75 18.75C382 18.487 382.512 20.362 381.25 18.75C379.988 17.138 378.75 17.5 378.75 17.5C378.75 17.5 377.037 16.325 376.25 15C375.463 13.675 375.888 14.888 375 13.75C374.112 12.612 375.025 12.287 375 11.25C374.975 10.212 375.025 10.85 375 10C374.975 9.149 375.025 8.262 375 6.25L376.25 3.75" fill-rule="nonzero" stroke="none" fill="#f4a633"/>
      </g>
    </g>
  </g>
</svg>
