<?xml version="1.0" encoding="UTF-8"?><svg id="Layer_1" xmlns="http://www.w3.org/2000/svg" viewBox="0 0 420.23 421.77"><defs><style>.cls-1{fill:#0078d6;}</style></defs><g id="Layer_1-2"><g id="_26257872464"><path id="path5" class="cls-1" d="M192.42,33.87C267.84,21.55,344.81,10.78,420.23,0v200.11c-75.43,0-152.39,1.54-227.82,1.54V33.87h0Z"/><path id="path7" class="cls-1" d="M0,60.03c56.95-9.24,113.91-16.93,172.4-23.09v164.71c-58.49,0-115.45,1.54-172.4,1.54V60.03h0Z"/><path id="path29" class="cls-1" d="M0,220.12c56.95,0,113.91,1.54,172.4,0v166.25c-58.49-7.7-115.45-15.39-172.4-23.09v-143.16Z"/><path id="path31" class="cls-1" d="M192.42,221.66h227.82v200.11c-75.43-12.31-152.39-21.55-227.82-32.33v-167.79h0Z"/></g></g></svg>