<?xml version="1.0" encoding="UTF-8"?><svg id="Layer_1" xmlns="http://www.w3.org/2000/svg" viewBox="0 0 189.26 171.72"><defs><style>.cls-1{fill:#e60012;}</style></defs><path class="cls-1" d="M11.57,125.71l7.29,9.82h2.9v-14.68h-2.98v9.65l-7.22-9.65h-2.97v14.68h2.98v-9.82ZM83.24,120.85h-12.44v3.12h4.69v11.57h3.16v-11.57h4.59v-3.12ZM82.34,170.75h6.17v-27.71h-6.17v27.71ZM50.15,125.71l7.29,9.82h2.9v-14.68h-2.98v9.65l-7.22-9.65h-2.97v14.68h2.98v-9.82ZM64.08,163.14l-5.87-20.1h-4.92l-5.84,20.03-5.33-20.03h-6.03l7.84,27.71h6.66l5.17-18.25,5.13,18.25h6.69l7.88-27.71h-6.03l-5.35,20.1ZM20.09,153.92c-4-.66-6.59-1.4-6.59-3.26,0-2.15,2.88-2.98,6.74-2.98,3.59,0,7.19,1.37,8.48,1.91l1.97-4.8c-1.39-.55-5.82-2.13-10.73-2.13-5.99,0-12.35,2.92-12.35,8.33,0,4.39,3.09,6.63,11.04,7.99,5.6.96,8.68,1.49,8.6,3.9-.05,1.33-1.07,3.55-7.39,3.55-5.08,0-8.65-1.84-9.9-2.59l-2.62,4.73c1.4.74,6.09,2.93,12.12,2.93,8.81,0,13.47-3.05,13.47-8.83,0-3.35-1.13-6.84-12.85-8.76M36.1,120.85h-3.27v14.68h3.27v-14.68ZM130.75,135.53v-14.68h-2.98v9.65l-7.22-9.65h-2.97v14.68h2.98v-9.82l7.29,9.82h2.9ZM105.41,132.81h-8.44v-3.44h7.8v-2.66h-7.8v-3.17h8.44v-2.7h-11.42v14.68h11.42v-2.72h0ZM174.11,120.35c-4.31,0-7.82,3.52-7.82,7.84s3.51,7.84,7.82,7.84,7.82-3.52,7.82-7.84-3.51-7.84-7.82-7.84M174.11,132.76c-2.52,0-4.56-2.05-4.56-4.57s2.05-4.57,4.56-4.57,4.56,2.05,4.56,4.57-2.05,4.57-4.56,4.57M175.11,153.96h-12.94v-10.92h-5.73v27.71h5.73v-11.05h12.94v11.05h5.73v-27.71h-5.73v10.92ZM95.26,148.92h8.85v21.83h5.96v-21.83h8.65v-5.88h-23.47v5.88h0ZM138,148.3c3.13,0,6.04,1.67,7.61,4.3l4.51-3.92c-2.76-4.1-7.31-6.54-12.28-6.54-8.15,0-14.79,6.63-14.79,14.79s6.64,14.79,14.79,14.79c4.96,0,9.52-2.44,12.28-6.54l-4.51-3.92c-1.56,2.63-4.48,4.3-7.61,4.3-4.85,0-8.79-3.87-8.79-8.63s3.94-8.63,8.79-8.63M149.24,120.85h-6.07v14.68h6.07c4.16,0,7.55-3.29,7.55-7.34s-3.39-7.34-7.55-7.34M149.39,132.45h-3.2v-8.51h3.2c2.35,0,4.26,1.91,4.26,4.26s-1.91,4.26-4.26,4.26"/><path class="cls-1" d="M47,1.57h-21.63C11.36,1.57,0,12.93,0,26.94v48.2c0,14.01,11.36,25.37,25.37,25.37h21.63c.4,0,.73-.32.73-.73V2.29c0-.4-.32-.72-.73-.72ZM39.74,92.53h-14.37c-4.65,0-9.01-1.81-12.3-5.09-3.29-3.28-5.09-7.65-5.09-12.3V26.94c0-4.65,1.81-9.02,5.09-12.3,3.29-3.28,7.65-5.09,12.3-5.09h14.37v82.99h0ZM24.71,21.95c5.14,0,9.3,4.17,9.3,9.3s-4.16,9.3-9.3,9.3-9.3-4.17-9.3-9.3,4.17-9.3,9.3-9.3ZM73.57,1.57h-15.31c-.36,0-.64.29-.64.65v97.57c0,.4.32.73.72.73h15.23c14.01,0,25.37-11.36,25.37-25.37V26.95c0-14.01-11.36-25.37-25.37-25.37h0ZM77.2,65.99c-5.53,0-10-4.48-10-10s4.48-10,10-10,10,4.48,10,10-4.48,10-10,10Z"/><path class="cls-1" d="M115.61,100.51v-17.01c1.76-1.44,8.4-7.16,15.43-13.2,6.32-5.44,12.63-10.89,19.07-16.18,4.85-3.99,14.07-11.31,14.36-18.49.35-8.44-5.64-13.91-14.58-13.91-5.33,0-11.58,2.96-15.37,6.18s-8.65,7.38-8.65,7.38l-14.01-15.18C123.75,6.77,136.54.01,149.86.01c28.4-.7,49.8,30.95,28.2,55.76-7.84,8.64-16.73,16.73-25.88,23.92h37.08v20.82h-73.67.02Z"/></svg>